<?xml version="1.0" encoding="UTF-8" standalone="no"?>
<!DOCTYPE svg  PUBLIC '-//W3C//DTD SVG 1.1//EN'  'http://www.w3.org/Graphics/SVG/1.1/DTD/svg11.dtd'>
<svg xmlns="http://www.w3.org/2000/svg" height="29px" width="29px" version="1.1" y="0" x="0" preserveAspectRatio="none" xmlns:xlink="http://www.w3.org/1999/xlink" viewBox="0 0 29 29">

<g >
<g xmlns="http://www.w3.org/2000/svg" xmlns:sketch="http://www.bohemiancoding.com/sketch/ns" id="Page-1" fill-rule="evenodd" sketch:type="MSPage" fill="none">
   <g id="Artboard-1" sketch:type="MSArtboardGroup">
    <g id="Oval-26-+-ic_link_24px-3" sketch:type="MSLayerGroup">
     <circle id="Oval-26" sketch:type="MSShapeGroup" cy="12" cx="12" r="12" fill="#558B2F"/>
     <g id="ic_link_24px-3" sketch:type="MSShapeGroup" transform="translate(3 3)">
      <rect id="Rectangle-path" y="0" x="0" height="18" width="18"/>
      <path id="Shape" fill="#fff" d="m2.925 9c0-1.275 1.05-2.325 2.325-2.325h3v-1.425h-3c-2.1 0-3.75 1.65-3.75 3.75s1.65 3.75 3.75 3.75h3v-1.425h-3c-1.275 0-2.325-1.05-2.325-2.325zm3.075 0.75h6v-1.5h-6v1.5zm6.75-4.5h-3v1.425h3c1.275 0 2.325 1.05 2.325 2.325s-1.05 2.325-2.325 2.325h-3v1.425h3c2.1 0 3.75-1.65 3.75-3.75s-1.65-3.75-3.75-3.75z"/>
     </g>
    </g>
   </g>
  </g>
</g>
</svg>
